<?xml version="1.0" encoding="UTF-8"?>
<svg width="700pt" height="700pt" version="1.1" viewBox="0 0 700 700" xmlns="http://www.w3.org/2000/svg" xmlns:xlink="http://www.w3.org/1999/xlink">
 <defs>
  <symbol id="w" overflow="visible">
   <path d="m11.438-0.6875c-0.58594 0.3125-1.1992 0.54297-1.8438 0.6875-0.63672 0.15625-1.3047 0.23438-2 0.23438-2.0742 0-3.7188-0.57812-4.9375-1.7344-1.2109-1.1562-1.8125-2.7266-1.8125-4.7188 0-1.9883 0.60156-3.5625 1.8125-4.7188 1.2188-1.1562 2.8633-1.7344 4.9375-1.7344 0.69531 0 1.3633 0.078125 2 0.23438 0.64453 0.15625 1.2578 0.38672 1.8438 0.6875v2.5781c-0.59375-0.40625-1.1836-0.70312-1.7656-0.89062-0.57422-0.1875-1.1797-0.28125-1.8125-0.28125-1.1484 0-2.0469 0.37109-2.7031 1.1094-0.65625 0.73047-0.98438 1.7344-0.98438 3.0156 0 1.293 0.32812 2.3086 0.98438 3.0469 0.65625 0.73047 1.5547 1.0938 2.7031 1.0938 0.63281 0 1.2383-0.09375 1.8125-0.28125 0.58203-0.19531 1.1719-0.5 1.7656-0.90625z"/>
  </symbol>
  <symbol id="b" overflow="visible">
   <path d="m8.375-6.7969c-0.26172-0.125-0.52344-0.21094-0.78125-0.26562-0.26172-0.0625-0.52344-0.09375-0.78125-0.09375-0.77344 0-1.3672 0.25-1.7812 0.75-0.40625 0.49219-0.60938 1.1953-0.60938 2.1094v4.2969h-2.9844v-9.3438h2.9844v1.5312c0.38281-0.60156 0.82031-1.0469 1.3125-1.3281 0.5-0.28125 1.0977-0.42188 1.7969-0.42188 0.10156 0 0.21094 0.007812 0.32812 0.015625 0.11328 0 0.28125 0.015625 0.5 0.046875z"/>
  </symbol>
  <symbol id="a" overflow="visible">
   <path d="m10.75-4.6875v0.84375h-6.9688c0.070312 0.69922 0.32031 1.2266 0.75 1.5781 0.4375 0.34375 1.0469 0.51562 1.8281 0.51562 0.625 0 1.2656-0.085938 1.9219-0.26562 0.65625-0.1875 1.332-0.47266 2.0312-0.85938v2.3125c-0.71094 0.26172-1.418 0.46094-2.125 0.59375-0.69922 0.13281-1.4023 0.20312-2.1094 0.20312-1.6875 0-3-0.42578-3.9375-1.2812-0.9375-0.85156-1.4062-2.0547-1.4062-3.6094 0-1.5312 0.45703-2.7266 1.375-3.5938 0.92578-0.875 2.1914-1.3125 3.7969-1.3125 1.4688 0 2.6406 0.44531 3.5156 1.3281 0.88281 0.88672 1.3281 2.0703 1.3281 3.5469zm-3.0625-1c0-0.5625-0.16797-1.0156-0.5-1.3594-0.32422-0.35156-0.75781-0.53125-1.2969-0.53125-0.57422 0-1.043 0.16406-1.4062 0.48438-0.36719 0.32422-0.58984 0.79297-0.67188 1.4062z"/>
  </symbol>
  <symbol id="f" overflow="visible">
   <path d="m5.625-4.2031c-0.625 0-1.0938 0.10938-1.4062 0.32812-0.3125 0.21094-0.46875 0.51562-0.46875 0.92188 0 0.375 0.125 0.67188 0.375 0.89062 0.25 0.21094 0.59766 0.3125 1.0469 0.3125 0.5625 0 1.0352-0.19531 1.4219-0.59375 0.38281-0.40625 0.57812-0.91016 0.57812-1.5156v-0.34375zm4.5625-1.125v5.3281h-3.0156v-1.3906c-0.39844 0.57422-0.85156 0.99219-1.3594 1.25-0.5 0.25-1.1055 0.375-1.8125 0.375-0.96875 0-1.7578-0.28125-2.3594-0.84375-0.60547-0.5625-0.90625-1.2891-0.90625-2.1875 0-1.0938 0.375-1.8945 1.125-2.4062 0.75781-0.51953 1.9414-0.78125 3.5469-0.78125h1.7656v-0.23438c0-0.46875-0.1875-0.8125-0.5625-1.0312s-0.95312-0.32812-1.7344-0.32812c-0.64844 0-1.2461 0.0625-1.7969 0.1875-0.54297 0.125-1.0547 0.32031-1.5312 0.57812v-2.2812c0.64453-0.15625 1.2852-0.26953 1.9219-0.34375 0.64453-0.082031 1.2891-0.125 1.9375-0.125 1.6875 0 2.9062 0.33594 3.6562 1 0.75 0.65625 1.125 1.7344 1.125 3.2344z"/>
  </symbol>
  <symbol id="c" overflow="visible">
   <path d="m4.6875-11.984v2.6406h3.0781v2.1406h-3.0781v3.9531c0 0.4375 0.085938 0.73438 0.26562 0.89062 0.17578 0.14844 0.51953 0.21875 1.0312 0.21875h1.5312v2.1406h-2.5625c-1.1797 0-2.0156-0.24219-2.5156-0.73438-0.49219-0.48828-0.73438-1.3281-0.73438-2.5156v-3.9531h-1.4844v-2.1406h1.4844v-2.6406z"/>
  </symbol>
  <symbol id="e" overflow="visible">
   <path d="m7.7812-7.9688v-5h3.0156v12.969h-3.0156v-1.3438c-0.40625 0.54297-0.85938 0.94531-1.3594 1.2031-0.49219 0.25-1.0586 0.375-1.7031 0.375-1.1562 0-2.1055-0.45312-2.8438-1.3594-0.74219-0.91406-1.1094-2.0938-1.1094-3.5312 0-1.4453 0.36719-2.625 1.1094-3.5312 0.73828-0.91406 1.6875-1.375 2.8438-1.375 0.63281 0 1.2031 0.13281 1.7031 0.39062 0.5 0.25 0.95312 0.65234 1.3594 1.2031zm-1.9531 6.0469c0.63281 0 1.1172-0.23438 1.4531-0.70312 0.33203-0.46875 0.5-1.1445 0.5-2.0312 0-0.89453-0.16797-1.5703-0.5-2.0312-0.33594-0.46875-0.82031-0.70312-1.4531-0.70312-0.63672 0-1.125 0.23438-1.4688 0.70312-0.33594 0.46094-0.5 1.1367-0.5 2.0312 0 0.88672 0.16406 1.5625 0.5 2.0312 0.34375 0.46875 0.83203 0.70312 1.4688 0.70312z"/>
  </symbol>
  <symbol id="k" overflow="visible">
   <path d="m6.4062-1.9219c0.63281 0 1.1172-0.23438 1.4531-0.70312 0.34375-0.46875 0.51562-1.1445 0.51562-2.0312 0-0.89453-0.17188-1.5703-0.51562-2.0312-0.33594-0.46875-0.82031-0.70312-1.4531-0.70312-0.63672 0-1.125 0.23438-1.4688 0.70312s-0.51562 1.1484-0.51562 2.0312c0 0.88672 0.17188 1.5625 0.51562 2.0312s0.83203 0.70312 1.4688 0.70312zm-1.9844-6.0469c0.40625-0.55078 0.85938-0.95312 1.3594-1.2031 0.5-0.25781 1.0781-0.39062 1.7344-0.39062 1.1445 0 2.0859 0.46094 2.8281 1.375 0.73828 0.90625 1.1094 2.0859 1.1094 3.5312 0 1.4375-0.37109 2.6172-1.1094 3.5312-0.74219 0.90625-1.6836 1.3594-2.8281 1.3594-0.65625 0-1.2344-0.125-1.7344-0.375-0.5-0.25781-0.95312-0.66016-1.3594-1.2031v1.3438h-2.9844v-12.969h2.9844z"/>
  </symbol>
  <symbol id="j" overflow="visible">
   <path d="m0.20312-9.3438h2.9844l2.5156 6.3438 2.1406-6.3438h2.9844l-3.9375 10.234c-0.39844 1.0312-0.85547 1.7539-1.375 2.1719-0.52344 0.41406-1.2148 0.625-2.0781 0.625h-1.7344v-1.9688h0.9375c0.50781 0 0.87891-0.078125 1.1094-0.23438 0.22656-0.15625 0.40625-0.44922 0.53125-0.875l0.09375-0.25z"/>
  </symbol>
  <symbol id="i" overflow="visible">
   <path d="m9.125-2.2656h-5.0156l-0.79688 2.2656h-3.2344l4.6094-12.453h3.8281l4.625 12.453h-3.2344zm-4.2188-2.3125h3.4062l-1.7031-4.9531z"/>
  </symbol>
  <symbol id="v" overflow="visible">
   <path d="m1.4375-12.969h2.9844v12.969h-2.9844z"/>
  </symbol>
  <symbol id="u" overflow="visible">
   <path d="m1.4375-12.969h2.9844v7.0625l3.4375-3.4375h3.4688l-4.5625 4.2969 4.9219 5.0469h-3.625l-3.6406-3.8906v3.8906h-2.9844z"/>
  </symbol>
  <symbol id="t" overflow="visible">
   <path d="m8.7344-9.0469v2.2656c-0.64844-0.26953-1.2656-0.46875-1.8594-0.59375-0.59375-0.13281-1.1562-0.20312-1.6875-0.20312-0.5625 0-0.98438 0.074219-1.2656 0.21875-0.27344 0.13672-0.40625 0.35156-0.40625 0.64062 0 0.24219 0.10156 0.42969 0.3125 0.5625 0.20703 0.125 0.58203 0.21875 1.125 0.28125l0.53125 0.078125c1.5195 0.1875 2.5469 0.50781 3.0781 0.95312 0.53125 0.44922 0.79688 1.1484 0.79688 2.0938 0 0.99219-0.37109 1.7344-1.1094 2.2344-0.73047 0.5-1.8242 0.75-3.2812 0.75-0.61719 0-1.2578-0.046875-1.9219-0.14062-0.65625-0.09375-1.3281-0.23828-2.0156-0.4375v-2.2656c0.59375 0.29297 1.2031 0.51172 1.8281 0.65625 0.625 0.13672 1.2578 0.20312 1.9062 0.20312 0.58203 0 1.0195-0.078125 1.3125-0.23438 0.28906-0.15625 0.4375-0.39453 0.4375-0.71875 0-0.26953-0.10547-0.46875-0.3125-0.59375-0.19922-0.13281-0.60156-0.23828-1.2031-0.3125l-0.51562-0.0625c-1.3359-0.16406-2.2656-0.47266-2.7969-0.92188-0.53125-0.44531-0.79688-1.1289-0.79688-2.0469 0-0.98828 0.33594-1.7227 1.0156-2.2031 0.67578-0.47656 1.7109-0.71875 3.1094-0.71875 0.55078 0 1.1289 0.042969 1.7344 0.125 0.60156 0.085938 1.2656 0.21484 1.9844 0.39062z"/>
  </symbol>
  <symbol id="h" overflow="visible">
   <path d="m10.828-5.6875v5.6875h-3v-4.3594c0-0.80078-0.023437-1.3516-0.0625-1.6562-0.03125-0.3125-0.09375-0.53906-0.1875-0.6875-0.11719-0.1875-0.27734-0.33203-0.48438-0.4375-0.19922-0.11328-0.42188-0.17188-0.67188-0.17188-0.625 0-1.1172 0.24219-1.4688 0.71875-0.35547 0.48047-0.53125 1.1484-0.53125 2v4.5938h-2.9844v-9.3438h2.9844v1.375c0.44531-0.55078 0.92188-0.95312 1.4219-1.2031 0.50781-0.25781 1.0703-0.39062 1.6875-0.39062 1.0703 0 1.8906 0.33594 2.4531 1 0.5625 0.65625 0.84375 1.6172 0.84375 2.875z"/>
  </symbol>
  <symbol id="s" overflow="visible">
   <path d="m0.078125-12.453h3.2344l3.2969 9.1875 3.2969-9.1875h3.2344l-4.625 12.453h-3.8281z"/>
  </symbol>
  <symbol id="g" overflow="visible">
   <path d="m8.9844-9.0469v2.4375c-0.40625-0.28125-0.82031-0.48828-1.2344-0.625-0.40625-0.13281-0.82812-0.20312-1.2656-0.20312-0.83594 0-1.4844 0.24609-1.9531 0.73438-0.46094 0.49219-0.6875 1.1719-0.6875 2.0469 0 0.86719 0.22656 1.543 0.6875 2.0312 0.46875 0.49219 1.1172 0.73438 1.9531 0.73438 0.46875 0 0.91016-0.066406 1.3281-0.20312 0.42578-0.14453 0.81641-0.35156 1.1719-0.625v2.4375c-0.46875 0.17969-0.94531 0.30469-1.4219 0.39062-0.48047 0.082031-0.96484 0.125-1.4531 0.125-1.6875 0-3.0078-0.42969-3.9531-1.2969-0.94922-0.86328-1.4219-2.0625-1.4219-3.5938 0-1.5391 0.47266-2.7422 1.4219-3.6094 0.94531-0.86328 2.2656-1.2969 3.9531-1.2969 0.48828 0 0.96875 0.042969 1.4375 0.125 0.47656 0.085938 0.95703 0.21484 1.4375 0.39062z"/>
  </symbol>
  <symbol id="d" overflow="visible">
   <path d="m5.875-7.4375c-0.65625 0-1.1641 0.24219-1.5156 0.71875-0.34375 0.48047-0.51562 1.168-0.51562 2.0625 0 0.89844 0.17188 1.5859 0.51562 2.0625 0.35156 0.46875 0.85938 0.70312 1.5156 0.70312s1.1562-0.23438 1.5-0.70312c0.34375-0.47656 0.51562-1.1641 0.51562-2.0625 0-0.89453-0.17188-1.582-0.51562-2.0625-0.34375-0.47656-0.84375-0.71875-1.5-0.71875zm0-2.125c1.6016 0 2.8594 0.43359 3.7656 1.2969 0.90625 0.86719 1.3594 2.0703 1.3594 3.6094 0 1.5312-0.45312 2.7305-1.3594 3.5938-0.90625 0.86719-2.1641 1.2969-3.7656 1.2969-1.6172 0-2.875-0.42969-3.7812-1.2969-0.90625-0.86328-1.3594-2.0625-1.3594-3.5938 0-1.5391 0.45312-2.7422 1.3594-3.6094 0.90625-0.86328 2.1641-1.2969 3.7812-1.2969z"/>
  </symbol>
  <symbol id="r" overflow="visible">
   <path d="m7.5781-12.969v1.9531h-1.6562c-0.41797 0-0.71094 0.078125-0.875 0.23438-0.16797 0.14844-0.25 0.41406-0.25 0.79688v0.64062h2.5469v2.1406h-2.5469v7.2031h-2.9844v-7.2031h-1.4844v-2.1406h1.4844v-0.64062c0-1.0195 0.28125-1.7695 0.84375-2.25 0.57031-0.48828 1.4531-0.73438 2.6406-0.73438z"/>
  </symbol>
  <symbol id="q" overflow="visible">
   <path d="m10.094-7.7812c0.375-0.58203 0.82031-1.0234 1.3438-1.3281 0.51953-0.30078 1.0938-0.45312 1.7188-0.45312 1.0703 0 1.8828 0.33594 2.4375 1 0.5625 0.65625 0.84375 1.6172 0.84375 2.875v5.6875h-3v-4.875c0.007812-0.070312 0.015625-0.14453 0.015625-0.21875v-0.32812c0-0.66406-0.10156-1.1445-0.29688-1.4375-0.1875-0.30078-0.5-0.45312-0.9375-0.45312-0.5625 0-1 0.23438-1.3125 0.70312-0.30469 0.46875-0.46094 1.1406-0.46875 2.0156v4.5938h-3v-4.875c0-1.0312-0.09375-1.6914-0.28125-1.9844-0.17969-0.30078-0.49219-0.45312-0.9375-0.45312-0.57422 0-1.0156 0.23438-1.3281 0.70312s-0.46875 1.1406-0.46875 2.0156v4.5938h-3v-9.3438h3v1.375c0.36328-0.53125 0.78125-0.92578 1.25-1.1875 0.47656-0.26953 1.0039-0.40625 1.5781-0.40625 0.64453 0 1.2109 0.15625 1.7031 0.46875 0.5 0.3125 0.87891 0.75 1.1406 1.3125z"/>
  </symbol>
  <symbol id="p" overflow="visible">
   <path d="m10.828-5.6875v5.6875h-3v-4.3438c0-0.8125-0.023437-1.3672-0.0625-1.6719-0.03125-0.3125-0.09375-0.53906-0.1875-0.6875-0.11719-0.1875-0.27734-0.33203-0.48438-0.4375-0.19922-0.11328-0.42188-0.17188-0.67188-0.17188-0.625 0-1.1172 0.24219-1.4688 0.71875-0.35547 0.48047-0.53125 1.1484-0.53125 2v4.5938h-2.9844v-12.969h2.9844v5c0.44531-0.55078 0.92188-0.95312 1.4219-1.2031 0.50781-0.25781 1.0703-0.39062 1.6875-0.39062 1.0703 0 1.8906 0.33594 2.4531 1 0.5625 0.65625 0.84375 1.6172 0.84375 2.875z"/>
  </symbol>
  <symbol id="o" overflow="visible">
   <path d="m1.5625-12.453h3.5938l4.5312 8.5469v-8.5469h3.0312v12.453h-3.5781l-4.5312-8.5469v8.5469h-3.0469z"/>
  </symbol>
  <symbol id="n" overflow="visible">
   <path d="m1.3281-3.6406v-5.7031h3.0156v0.9375c0 0.51172-0.007812 1.1484-0.015625 1.9062-0.011719 0.76172-0.015625 1.2734-0.015625 1.5312 0 0.75 0.019531 1.293 0.0625 1.625 0.039062 0.32422 0.10938 0.5625 0.20312 0.71875 0.125 0.19922 0.28516 0.35156 0.48438 0.45312 0.19531 0.10547 0.42188 0.15625 0.67188 0.15625 0.625 0 1.1133-0.23828 1.4688-0.71875 0.35156-0.47656 0.53125-1.1445 0.53125-2v-4.6094h2.9844v9.3438h-2.9844v-1.3438c-0.44922 0.54297-0.92969 0.94531-1.4375 1.2031-0.5 0.25-1.0547 0.375-1.6562 0.375-1.0742 0-1.8984-0.32812-2.4688-0.98438-0.5625-0.66406-0.84375-1.6289-0.84375-2.8906z"/>
  </symbol>
  <symbol id="m" overflow="visible">
   <path d="m1.5625-12.453h5.3281c1.582 0 2.7969 0.35547 3.6406 1.0625 0.85156 0.69922 1.2812 1.6992 1.2812 3 0 1.3125-0.42969 2.3242-1.2812 3.0312-0.84375 0.69922-2.0586 1.0469-3.6406 1.0469h-2.1094v4.3125h-3.2188zm3.2188 2.3281v3.4844h1.7656c0.625 0 1.1016-0.14844 1.4375-0.45312 0.34375-0.3125 0.51562-0.74219 0.51562-1.2969 0-0.55078-0.17188-0.97656-0.51562-1.2812-0.33594-0.30078-0.8125-0.45312-1.4375-0.45312z"/>
  </symbol>
  <symbol id="l" overflow="visible">
   <path d="m1.4375-9.3438h2.9844v9.1719c0 1.25-0.30469 2.2031-0.90625 2.8594-0.59375 0.66406-1.4648 1-2.6094 1h-1.4688v-1.9688h0.51562c0.5625 0 0.94531-0.13281 1.1562-0.39062 0.21875-0.25 0.32812-0.75 0.32812-1.5zm0-3.625h2.9844v2.4219h-2.9844z"/>
  </symbol>
 </defs>
 <g>
  <path d="m394.83 338.78c-0.37109-238.83-115.21-194.41-275.55-224.93-46.984-8.9414-62.246-60.711-37.625 50.031 55.859 251.23 254.55 212.73 302.5 198.4-5.6836-15.078-11.703-28.398-18.055-40.242-43.211 22.531-86.133 26.355-143.47 5.8125 38.887 4.6875 76.516 14.492 137-17.168-15.098-24.977-31.996-42.668-50.754-56.461-33.914 16.996-67.371 19.43-111.74 2.7266 29.199 3.9961 57.422 11.695 102.15-9.3555-18.82-12.219-39.41-21.297-61.836-30.344-10.953-4.4219-30.789-10.41-52.473-20.988-20.77 5.9023-39.973 3.7266-63.336-10.129 15.52 4.9844 30.188 11.797 55.375 6.0664-25.355-13.5-52.031-33.57-69.344-64.809 44.797 54.168 93.887 60.312 134.98 76.895 14.363 5.793 28.191 11.379 41.434 17.621-9.4766-34.914-27.559-48.688-43.941-64.695 31.621 19.383 47.031 41.09 53.711 69.488 24.348 12.453 46.562 28.008 66.258 52.453 4.5938-44.293-10.113-67.887-21.887-93.309 28.289 36.617 36.094 68.648 30.59 104.94 9.3164 13.398 18.008 29.172 26.027 48z" fill-rule="evenodd"/>
  <path d="m400.12 348.96c0.25781-168.21 81.145-136.92 194.08-158.42 33.086-6.2969 43.84-42.762 26.496 35.234-39.34 176.95-179.29 149.82-213.05 139.73 4.0039-10.621 8.2383-20.004 12.719-28.348 30.434 15.867 60.668 18.566 101.05 4.0938-27.391 3.3047-53.887 10.207-96.496-12.09 10.637-17.594 22.535-30.051 35.746-39.766 23.891 11.969 47.449 13.688 78.703 1.918-20.562 2.8125-40.441 8.2344-71.941-6.5898 13.254-8.6055 27.758-14.996 43.551-21.371 7.7188-3.1133 21.691-7.332 36.961-14.781 14.629 4.1602 28.148 2.6211 44.605-7.1328-10.93 3.5117-21.262 8.3125-39 4.2734 17.855-9.5078 36.645-23.645 48.84-45.648-31.547 38.152-66.121 42.477-95.062 54.156-10.117 4.082-19.855 8.0156-29.184 12.41 6.6719-24.594 19.414-34.289 30.945-45.566-22.27 13.652-33.121 28.941-37.832 48.941-17.145 8.7734-32.793 19.723-46.664 36.941-3.2383-31.199 7.1211-47.816 15.418-65.719-19.926 25.789-25.422 48.348-21.555 73.914-6.5586 9.4453-12.68 20.555-18.328 33.812z" fill-rule="evenodd"/>
  <path d="m391.61 467.11c24.664-5.8359 28.309-15.176 39.398-24.078-8.0273-38.082-20.426-45.531-28.016-74.855 0.73438-2.6289 1.4609-5.2539 2.1914-7.8828-1.457-2.625-2.918-5.2539-4.3789-7.8828-0.87891 0.25781-1.75 0.50781-2.6289 0.76953-1.75-4.6289-3.5-9.2656-5.25-13.898-2.5156 4.3789-5.0352 8.75-7.5547 13.133 6.2148 44.203 9.7812 53.516 9.1641 80.973-0.20703 9.0586-1.75 18.797-2.9258 33.723z" fill-rule="evenodd"/>
  <use x="70" y="611.21875" xlink:href="#w"/>
  <use x="82.53125" y="611.21875" xlink:href="#b"/>
  <use x="90.949219" y="611.21875" xlink:href="#a"/>
  <use x="102.527344" y="611.21875" xlink:href="#f"/>
  <use x="114.050781" y="611.21875" xlink:href="#c"/>
  <use x="122.210938" y="611.21875" xlink:href="#a"/>
  <use x="133.789062" y="611.21875" xlink:href="#e"/>
  <use x="151.957031" y="611.21875" xlink:href="#k"/>
  <use x="164.175781" y="611.21875" xlink:href="#j"/>
  <use x="181.25" y="611.21875" xlink:href="#i"/>
  <use x="194.464844" y="611.21875" xlink:href="#v"/>
  <use x="200.316406" y="611.21875" xlink:href="#a"/>
  <use x="211.894531" y="611.21875" xlink:href="#u"/>
  <use x="223.25" y="611.21875" xlink:href="#t"/>
  <use x="233.414063" y="611.21875" xlink:href="#f"/>
  <use x="244.933594" y="611.21875" xlink:href="#h"/>
  <use x="257.089844" y="611.21875" xlink:href="#e"/>
  <use x="269.308594" y="611.21875" xlink:href="#b"/>
  <use x="283.671875" y="611.21875" xlink:href="#s"/>
  <use x="296.886719" y="611.21875" xlink:href="#a"/>
  <use x="308.464844" y="611.21875" xlink:href="#g"/>
  <use x="318.585938" y="611.21875" xlink:href="#c"/>
  <use x="326.746094" y="611.21875" xlink:href="#d"/>
  <use x="338.476563" y="611.21875" xlink:href="#b"/>
  <use x="70" y="628.292969" xlink:href="#r"/>
  <use x="77.429688" y="628.292969" xlink:href="#b"/>
  <use x="85.847656" y="628.292969" xlink:href="#d"/>
  <use x="97.578125" y="628.292969" xlink:href="#q"/>
  <use x="121.3125" y="628.292969" xlink:href="#c"/>
  <use x="129.472656" y="628.292969" xlink:href="#p"/>
  <use x="141.628906" y="628.292969" xlink:href="#a"/>
  <use x="159.152344" y="628.292969" xlink:href="#o"/>
  <use x="173.4375" y="628.292969" xlink:href="#d"/>
  <use x="185.167969" y="628.292969" xlink:href="#n"/>
  <use x="197.324219" y="628.292969" xlink:href="#h"/>
  <use x="215.421875" y="628.292969" xlink:href="#m"/>
  <use x="227.933594" y="628.292969" xlink:href="#b"/>
  <use x="236.355469" y="628.292969" xlink:href="#d"/>
  <use x="248.085938" y="628.292969" xlink:href="#l"/>
  <use x="253.9375" y="628.292969" xlink:href="#a"/>
  <use x="265.515625" y="628.292969" xlink:href="#g"/>
  <use x="275.636719" y="628.292969" xlink:href="#c"/>
 </g>
</svg>
